<svg width="1280" height="720" viewBox="0 0 1280 720" fill="none" xmlns="http://www.w3.org/2000/svg">
<g clip-path="url(#clip0_6241_4343)">
<path d="M0 2.76422C0 1.23757 1.23759 0 2.76424 0H1277.24C1278.76 0 1280 1.23759 1280 2.76424V717.236C1280 718.762 1278.76 720 1277.24 720H2.76428C1.23763 720 0 718.762 0 717.236V2.76422Z" fill="url(#paint0_radial_6241_4343)"/>
<path d="M0 2.76422C0 1.23757 1.23759 0 2.76424 0H1277.24C1278.76 0 1280 1.23759 1280 2.76424V717.236C1280 718.762 1278.76 720 1277.24 720H2.76428C1.23763 720 0 718.762 0 717.236V2.76422Z" fill="url(#paint1_linear_6241_4343)" fill-opacity="0.5"/>
<path opacity="0.2" d="M972.035 807.237C1055.28 807.237 1107.5 851.378 1119.83 928.585L1157.34 1162.27C1157.63 1163.92 1156.37 1165.43 1154.72 1165.52L1154.56 1165.52H902.645L902.389 1165.51C901.126 1165.39 900.064 1164.42 899.867 1163.17L862.485 928.585L862.205 926.783C850.85 851.29 888.834 807.924 970.092 807.246L972.035 807.237ZM972.035 808.237C930.569 808.237 900.425 819.231 882.163 839.625C863.91 860.01 857.334 890.002 863.472 928.428L900.855 1163.01L900.856 1163.01C900.988 1163.86 901.757 1164.52 902.645 1164.52H1154.56L1154.77 1164.51C1155.79 1164.4 1156.53 1163.44 1156.35 1162.44L1156.35 1162.44L1156.35 1162.43L1118.85 928.745V928.744C1112.71 890.332 1096.67 860.232 1071.89 839.729C1047.11 819.223 1013.48 808.237 972.035 808.237ZM53.9132 -90.6255H128.373L128.676 -90.6108C130.072 -90.4746 131.199 -89.407 131.443 -88.0435L131.481 -87.7466L145.705 122.764L169.693 122.876L201.802 123.045L196.008 37.3042C195.881 35.5615 197.197 34.0946 198.915 34.0044L199.083 34.0005H351.962C428.254 34.0005 474.382 55.8537 483.706 131.324C484.36 136.361 484.688 141.563 484.786 146.83V149.937C484.884 199.138 468.821 229.464 446.019 243.662C445.725 243.858 445.594 244.283 445.757 244.61L477.146 313.784C503.261 294.074 537.681 283.402 579.057 283.011L581.42 283H692.234L692.502 283.014C693.826 283.148 694.855 284.262 694.856 285.622V578.713H775.439V578.92H819.995C821.753 578.921 823.234 580.368 823.234 582.161V983.283L823.231 983.45C823.145 985.109 821.789 986.435 820.159 986.519L819.995 986.523H426.704L426.516 986.518C424.641 986.415 423.257 984.78 423.442 982.95L423.465 982.766L486.203 587.797C444.186 561.215 420.592 513.892 420.01 450.051L419.998 447.625C419.998 438.794 420.434 430.272 421.295 422.074L299.322 421.198H272.766L252.308 494.266C295.862 519.969 321.667 566.456 321.667 625.975L321.655 628.146C320.683 719.79 258.118 780 163.888 780L161.668 779.99C68.6898 779.057 7.96251 719.466 7.01186 628.155L7.00014 625.975C7.00014 542.429 56.6569 485.015 135.285 473.95L151.029 417.745C151.183 417.285 150.847 416.825 150.374 416.769L150.277 416.763H135.373L133.887 416.75C102.739 416.144 75.6793 396.535 64.8361 368.278C62.3234 361.749 61.0171 354.847 60.4328 347.841L60.3253 346.439L57.0871 296.572H1.27357C-75.0183 296.572 -121.147 274.718 -130.471 199.249C-131.125 194.211 -131.452 189.009 -131.551 183.743V180.635C-131.649 131.434 -115.586 101.108 -92.7831 86.9106C-92.4888 86.7144 -92.3581 86.2895 -92.5213 85.9624L-170.678 -86.2749C-171.594 -88.3031 -170.49 -91.9995 -168.232 -91.9995H-137.21L53.9132 -90.6255ZM694.856 609.712L694.842 609.981C694.717 611.216 693.737 612.196 692.502 612.321L692.234 612.333H581.42L579.057 612.323C542.754 611.98 511.806 603.717 487.124 588.377L424.453 982.922C424.24 984.277 425.283 985.523 426.704 985.523H819.995C821.207 985.523 822.234 984.516 822.234 983.283V582.161C822.234 580.927 821.207 579.921 819.995 579.92H774.439V579.713H694.856V609.712ZM134.991 475.001C100.63 479.918 71.9028 493.744 50.5206 514.725C23.3929 541.345 8.00014 579.567 8.00014 625.975C8.00026 672.383 23.3985 710.618 50.5294 737.25C77.6624 763.884 116.618 779 163.888 779C211.156 779 250.336 763.784 277.693 737.096C305.048 710.411 320.667 672.174 320.667 625.975C320.667 579.788 305.055 541.565 277.703 514.889C270.045 507.42 261.46 500.85 252.029 495.261L248.762 506.934L248.679 507.174C248.249 508.277 247.223 509.077 246.042 509.178L245.787 509.19H129.489L129.298 509.184C127.34 509.067 125.977 507.166 126.515 505.266L134.991 475.001ZM745.988 -104.988C747.252 -104.871 748.314 -103.901 748.51 -102.642L775.066 63.9995H943.305L935.01 -63.73C934.883 -65.44 936.198 -66.9053 937.914 -66.9956L938.082 -66.9995L1023.75 -67.0005L1058.69 -66.8374L1170.02 -66.2485H1241.08C1243.11 -66.2483 1244.58 -64.2869 1244.03 -62.3257L1137.76 317.221L1137.68 317.461C1137.25 318.564 1136.22 319.364 1135.04 319.465L1134.79 319.477H1092.79L1076.43 422.452C1087.58 425.917 1097.91 430.424 1107.37 435.931C1112.6 349.888 1173.99 294 1264.78 294L1267 294.01C1359.98 294.943 1420.71 354.534 1421.66 445.845L1421.67 448.026C1421.67 541.296 1359.78 601.999 1264.78 602L1262.56 601.989C1230.07 601.661 1201.42 594.132 1177.85 580.601C1177.13 682.441 1117.92 742.387 1018.8 743.323L1016.44 743.333H905.623L905.355 743.32C904.031 743.186 903.001 742.072 903.001 740.712V471.809H780.797V471.602H736.24C734.483 471.602 733.001 470.154 733.001 468.362V244.191C717.788 250.007 699.514 253.101 678.285 253.278L676.342 253.287C593.097 253.286 540.875 209.146 528.543 131.938L491.04 -101.747C490.751 -103.394 492.004 -104.902 493.656 -104.995L493.818 -105H745.733L745.988 -104.988ZM1069.05 468.879C1068.83 470.366 1067.6 471.459 1066.14 471.589L1065.85 471.602H1029.56V471.809H904.001V740.712C904.001 741.61 904.725 742.333 905.623 742.333H1016.44L1018.79 742.323C1068.07 741.857 1107.32 726.755 1134.37 699.245C1161.62 671.533 1176.6 631.111 1176.85 580.026C1133 554.383 1107 507.768 1107 448.025L1107.01 445.854C1107.04 442.887 1107.14 439.953 1107.3 437.053C1097.83 431.493 1087.48 426.941 1076.27 423.448L1069.05 468.879ZM527.673 579.92H490.386C489.278 579.921 488.334 580.714 488.17 581.793L488.169 581.8L487.294 587.302C512.384 603.004 544.069 611.333 581.42 611.333H692.234C693.132 611.333 693.855 610.61 693.856 609.712V579.713H527.673V579.92ZM1264.78 295C1217.51 295 1178.33 310.216 1150.97 336.904C1125.93 361.337 1110.72 395.455 1108.33 436.501C1152.43 462.665 1177.25 510.779 1177.85 576.283L1177.86 578.708C1177.86 578.956 1177.86 579.202 1177.85 579.449C1201.89 593.372 1231.3 601 1264.78 601C1312.06 600.999 1351.02 585.896 1378.15 559.275C1405.28 532.655 1420.67 494.433 1420.67 448.025C1420.67 401.617 1405.27 363.382 1378.14 336.75C1351.01 310.116 1312.05 295 1264.78 295ZM579.066 284.011C537.765 284.401 503.506 295.075 477.57 314.719L523.913 416.847C524.829 418.875 523.725 422.572 521.468 422.572H490.445L422.3 422.082C421.437 430.273 420.998 438.791 420.998 447.625C420.998 499.362 436.005 540.262 463.487 568.225C470.344 575.201 477.985 581.379 486.374 586.724L487.182 581.643C487.408 580.157 488.633 579.064 490.092 578.933L490.386 578.92H526.673V578.713H693.856V285.622C693.855 284.724 693.132 284.001 692.234 284H581.42L579.066 284.011ZM1108.27 437.625C1108.09 441.045 1108 444.512 1108 448.025C1108 494.212 1123.61 532.435 1150.97 559.111C1158.68 566.638 1167.34 573.252 1176.86 578.869C1176.86 578.815 1176.86 578.762 1176.86 578.708C1176.86 526.972 1161.85 486.072 1134.37 458.109C1126.65 450.252 1117.93 443.407 1108.27 437.625ZM163.888 473C154.261 473 144.979 473.625 136.072 474.847L127.478 505.536L127.477 505.539C127.102 506.863 128.095 508.19 129.489 508.19H245.787C246.696 508.19 247.532 507.553 247.804 506.646L251.137 494.739C227.045 480.697 197.516 473 163.888 473ZM157.228 293.268C157.354 295.011 156.038 296.478 154.32 296.568L154.152 296.572H58.089L61.3234 346.374H61.3224C61.8247 353.56 63.0554 360.62 65.5265 367.276L65.7687 367.919L65.7697 367.92L66.2912 369.242C77.4962 396.852 104.514 415.763 135.373 415.763H150.277C151.384 415.763 152.355 416.817 151.99 418.013L151.992 418.014L136.366 473.8C145.189 472.61 154.372 472 163.888 472L166.109 472.011C198.871 472.342 227.73 479.996 251.415 493.744L271.727 421.198H224.862L224.56 421.183C223.164 421.047 222.037 419.979 221.793 418.616L221.755 418.319L201.869 124.046L169.689 123.876L145.773 123.764L157.228 293.268ZM785.893 131.938L786.172 133.741C794.496 189.077 776.309 227.15 734.001 243.804V468.362C734.001 469.595 735.029 470.602 736.24 470.602H781.797V470.809H903.001V450.087C895.975 451.348 888.555 452 880.78 452L879.39 451.993C820.694 451.4 782.001 413.235 782.001 355.515L782.008 354.156C782.616 296.729 821.787 259 880.78 259L882.17 259.006C940.38 259.591 978.399 296.932 978.994 354.149L979.001 355.516C979.001 378.536 972.989 398.389 962.068 414H1016.44L1018.8 414.011C1039.48 414.207 1058.43 416.975 1075.46 422.155L1091.77 319.477H1018.49L1018.3 319.471C1016.34 319.354 1014.98 317.453 1015.52 315.553L1040.03 228.032C1040.18 227.572 1039.85 227.112 1039.38 227.056L1039.28 227.05H1024.37L1022.89 227.037C991.74 226.431 964.68 206.822 953.837 178.565C951.324 172.037 950.018 165.134 949.434 158.128L949.326 156.726L943.369 64.9995H775.226L785.893 131.938ZM961.358 415C948.337 433.047 928.631 445.256 904.001 449.904V470.809H1028.56V470.602H1065.85C1066.96 470.602 1067.9 469.809 1068.07 468.729L1068.07 468.722L1075.3 423.152C1057.69 417.78 1038.01 415 1016.44 415H961.358ZM880.78 260C851.269 260 826.839 269.507 809.792 286.152C792.748 302.794 783.001 326.652 783.001 355.515C783.001 384.37 792.744 408.221 809.786 424.857C826.831 441.495 851.261 450.999 880.78 451C888.564 451 895.984 450.343 903.001 449.073V416.622L903.015 416.353C903.14 415.118 904.119 414.138 905.355 414.013L905.623 414H960.846C971.892 398.489 978.001 378.638 978.001 355.515C978.001 326.519 968.39 302.661 951.487 286.053C934.581 269.444 910.293 260 880.78 260ZM905.623 415C904.725 415.001 904.001 415.724 904.001 416.622V448.885C923.156 445.237 939.258 436.977 951.492 424.961C954.624 421.886 957.505 418.561 960.121 415H905.623ZM476.754 315.341C472.052 318.962 467.626 322.88 463.487 327.089C440.892 350.069 426.731 381.789 422.409 421.083L490.453 421.572H521.468C521.972 421.572 522.558 421.146 522.945 420.118C523.321 419.12 523.324 417.972 523.002 417.258V417.257L476.754 315.341ZM199.083 35.0005C197.939 35.0006 197.035 35.8916 197 37.0063L197.005 37.2319V37.2368L202.804 123.051L281.023 123.465H352.083C354.109 123.466 355.58 125.427 355.025 127.388L273.046 420.198H299.33L421.404 421.075C426.535 374.229 445.592 337.984 476.33 314.407L444.846 245.024L444.847 245.023C444.468 244.222 444.788 243.281 445.464 242.83L445.477 242.821L445.489 242.813C467.891 228.865 483.884 198.942 483.786 149.939V146.848L483.738 144.887C483.602 140.321 483.282 135.821 482.715 131.452L482.714 131.446C478.077 93.9106 464.318 69.8826 442.391 55.1909C420.407 40.4615 390.046 35.0005 351.962 35.0005H199.083ZM222.751 418.238L222.777 418.44C222.956 419.438 223.828 420.198 224.862 420.198H272.007L354.062 127.119L354.063 127.116L354.094 126.992C354.377 125.704 353.395 124.466 352.083 124.465H281.018L202.871 124.051L222.751 418.238ZM950.324 156.661H950.323C950.826 163.847 952.056 170.907 954.528 177.563L954.77 178.207L954.771 178.208L955.292 179.529C966.497 207.138 993.515 226.05 1024.37 226.05H1039.28C1040.39 226.05 1041.36 227.104 1040.99 228.3L1040.99 228.301L1016.48 315.823L1016.48 315.826C1016.1 317.15 1017.1 318.477 1018.49 318.477H1091.93L1131.78 67.6001C1132 66.2456 1130.95 64.9997 1129.53 64.9995H944.371L950.324 156.661ZM938.082 -65.9995C936.933 -65.9993 936.037 -65.103 936.002 -64.022L936.007 -63.8042L936.008 -63.7944H936.007L944.307 63.9995H1129.53L1129.72 64.0044C1131.59 64.1078 1132.98 65.7426 1132.79 67.5728L1132.77 67.7563L1092.94 318.477H1134.79C1135.7 318.477 1136.53 317.84 1136.8 316.933L1243.06 -62.5952L1243.06 -62.5981L1243.09 -62.7222C1243.38 -64.0102 1242.4 -65.2483 1241.08 -65.2485H1170.02L1058.69 -65.8374L1023.75 -66.0005L938.082 -65.9995ZM49.0812 123.713C47.9314 123.713 47.0365 124.61 47.0011 125.691L47.006 125.909L47.007 125.918H47.006L58.0246 295.572H154.152C155.297 295.572 156.2 294.681 156.235 293.566L156.231 293.34V293.335L144.771 123.759L134.747 123.713H49.0812ZM-168.232 -90.9995C-168.736 -90.9995 -169.322 -90.574 -169.71 -89.5454C-170.086 -88.5476 -170.089 -87.3996 -169.766 -86.686V-86.6851L-91.6102 85.5483L-91.6112 85.5493C-91.233 86.35 -91.5521 87.2919 -92.2284 87.7427L-92.2411 87.7515L-92.2538 87.7593C-114.656 101.708 -130.648 131.63 -130.551 180.633V183.724L-130.503 185.685C-130.366 190.251 -130.047 194.751 -129.479 199.121L-129.478 199.126C-124.841 236.661 -111.083 260.69 -89.1551 275.381C-67.171 290.111 -36.8104 295.572 1.27357 295.572H57.0216L46.0089 125.983C45.8823 124.273 47.1967 122.807 48.9132 122.717L49.0812 122.713H134.752L144.703 122.759L130.484 -87.6655L130.458 -87.8677C130.28 -88.8656 129.408 -89.6254 128.373 -89.6255H53.9054L-137.218 -90.9995H-168.232ZM493.609 -103.988C492.584 -103.872 491.85 -102.92 492.026 -101.919L492.026 -101.913L492.028 -101.905L529.53 131.779V131.78C535.666 170.191 551.706 200.292 576.487 220.794C601.272 241.3 634.896 252.287 676.342 252.287C698.486 252.287 717.4 249.148 733.001 243.121V67.2397L733.005 67.0728C733.091 65.4138 734.446 64.0874 736.076 64.0034L736.24 63.9995H774.054L747.523 -102.485L747.522 -102.488C747.39 -103.337 746.62 -104 745.733 -104H493.818L493.609 -103.988ZM736.24 64.9995C735.029 64.9996 734.001 66.0065 734.001 67.2397V242.729C747.158 237.493 757.914 230.167 766.214 220.898C784.467 200.514 791.043 170.522 784.905 132.095L774.213 64.9995H736.24Z" fill="url(#paint2_linear_6241_4343)"/>
</g>
<defs>
<radialGradient id="paint0_radial_6241_4343" cx="0" cy="0" r="1" gradientUnits="userSpaceOnUse" gradientTransform="translate(640 720) rotate(-90) scale(720 1946.11)">
<stop stop-color="#1A010F"/>
<stop offset="0.0926714" stop-color="#2D021A"/>
<stop offset="1" stop-color="#750F48"/>
</radialGradient>
<linearGradient id="paint1_linear_6241_4343" x1="3.6323e-06" y1="332.5" x2="1280" y2="310.5" gradientUnits="userSpaceOnUse">
<stop stop-color="#2E031C"/>
<stop offset="0.485577" stop-color="#2E031C" stop-opacity="0"/>
<stop offset="1" stop-color="#2E031C"/>
</linearGradient>
<linearGradient id="paint2_linear_6241_4343" x1="625.001" y1="653" x2="625.001" y2="1.00081" gradientUnits="userSpaceOnUse">
<stop stop-color="#2D031B"/>
<stop offset="0.621226" stop-color="#FF319F"/>
<stop offset="1" stop-color="#F1E9D7"/>
</linearGradient>
<clipPath id="clip0_6241_4343">
<path d="M0 2.76422C0 1.23757 1.23759 0 2.76424 0H1277.24C1278.76 0 1280 1.23759 1280 2.76424V717.236C1280 718.762 1278.76 720 1277.24 720H2.76428C1.23763 720 0 718.762 0 717.236V2.76422Z" fill="white"/>
</clipPath>
</defs>
</svg>
