<svg data-v-0584fc8f="" width="48" height="48" viewBox="0 0 48 48" fill="none" xmlns="http://www.w3.org/2000/svg"><path data-v-0584fc8f="" d="M14.1589 24.1804C14.1337 24.0902 14.1995 24 14.2933 24H15.9076C15.9916 24 16.0574 23.9252 16.0462 23.8421L15.8096 21.9246C15.8012 21.8541 15.741 21.8005 15.671 21.8005H8.13999C8.03778 21.8005 7.97058 21.9063 8.01258 21.9993L13.8089 34.9168C13.8313 34.9675 13.8817 35 13.9363 35H17.1719C17.2181 35 17.2517 34.9549 17.2391 34.9097L14.1589 24.1804Z" fill="white"></path><path data-v-0584fc8f="" d="M23.8474 19.7449C23.8432 19.6646 23.9062 19.5955 23.9874 19.5955H26.229C26.3018 19.5955 26.362 19.5391 26.369 19.4672L26.5314 17.5554C26.5384 17.4736 26.474 17.4017 26.3914 17.4017H17.0417C16.959 17.4017 16.8946 17.4736 16.9016 17.5568L18.5957 34.8717C18.6027 34.9436 18.6629 34.9986 18.7357 34.9986L24.5391 34.9929C24.6189 34.9929 24.6833 34.9253 24.6791 34.8435L23.8488 19.7435L23.8474 19.7449Z" fill="white"></path><path data-v-0584fc8f="" d="M28.6904 13H39.8602C39.9526 13 40.0198 13.0888 39.9946 13.1791L33.9686 34.8957C33.9518 34.9563 33.8972 34.9986 33.8342 34.9986H26.2556C26.1716 34.9986 26.1072 34.9253 26.117 34.8421L28.5517 13.1255C28.5601 13.0536 28.619 13 28.6904 13Z" fill="white"></path></svg>