<svg data-v-8e84f835="" width="400" height="180" viewBox="0 0 400 180" fill="none" xmlns="http://www.w3.org/2000/svg" class="transform translate-y-5"><path d="M25.0039 75.0138C24.9507 74.8245 25.0896 74.6351 25.2876 74.6351H28.696C28.8733 74.6351 29.0123 74.4783 28.9886 74.3038L28.4891 70.28C28.4713 70.132 28.3442 70.0195 28.1964 70.0195H12.2958C12.08 70.0195 11.9381 70.2414 12.0268 70.4367L24.2648 97.5445C24.3122 97.651 24.4185 97.719 24.5339 97.719H31.3652C31.4628 97.719 31.5338 97.6244 31.5072 97.5297L25.0039 75.0138Z" fill="#F3EFDA"></path><path d="M45.4591 65.7054C45.4501 65.5368 45.5832 65.3918 45.7546 65.3918H50.4873C50.641 65.3918 50.7681 65.2735 50.7829 65.1225L51.1258 61.1106C51.1406 60.939 51.0046 60.7881 50.8301 60.7881H31.0897C30.9152 60.7881 30.7793 60.939 30.7941 61.1135L34.3709 97.4494C34.3857 97.6004 34.5128 97.7157 34.6665 97.7157L46.9193 97.7039C47.0878 97.7039 47.2238 97.5619 47.2149 97.3903L45.4619 65.7024L45.4591 65.7054Z" fill="#F3EFDA"></path><path d="M55.6853 51.5508H79.2687C79.4638 51.5508 79.6056 51.7371 79.5524 51.9265L66.8296 97.4995C66.7941 97.6268 66.6788 97.7156 66.5458 97.7156H50.5448C50.3674 97.7156 50.2313 97.5617 50.2521 97.3871L55.3926 51.8141C55.4104 51.6632 55.5345 51.5508 55.6853 51.5508Z" fill="#F3EFDA"></path><path d="M207.856 98.2854C194.898 98.2854 188.832 90.7969 188.832 79.616C188.832 66.9408 196.698 60.1387 208.259 60.1387C211.484 60.1387 214.08 60.3577 217.603 61.0115C217.739 61.0352 217.839 61.1506 217.846 61.2867L218.404 71.9647C218.41 72.0683 218.31 72.1451 218.212 72.1127C216.104 71.4321 213.459 70.7783 209.246 70.7783C205.034 70.7783 200.16 73.3435 200.16 79.2017C200.16 85.4682 204.011 87.5512 208.091 87.5512C209.527 87.5512 210.275 87.3766 210.275 87.3766C210.349 87.3678 210.402 87.3056 210.402 87.2287V83.9652C210.402 83.8824 210.341 83.8173 210.258 83.8173H205.235C205.072 83.8173 204.939 83.6842 204.939 83.5214V74.879C204.939 74.7163 205.072 74.5831 205.235 74.5831H218.466C218.622 74.5831 218.75 74.7045 218.762 74.8613L220.163 96.8949C220.171 97.0487 220.065 97.1848 219.912 97.2055C216.267 97.747 212.35 98.2854 207.856 98.2825V98.2854Z" fill="#F3EFDA"></path><path d="M148.434 59.9785C139.602 59.9785 134.068 64.6651 132.758 72.8637L128.848 97.3886C128.818 97.569 128.957 97.7317 129.14 97.7317H140.001C140.146 97.7317 140.27 97.6252 140.294 97.4832L141.715 88.5567C141.727 88.4857 141.789 88.4325 141.859 88.4325H145.883C145.974 88.4325 146.042 88.5153 146.028 88.6041L144.627 97.3914C144.598 97.5719 144.736 97.7347 144.919 97.7347H155.763C155.907 97.7347 156.032 97.6281 156.055 97.4862L159.981 72.8667C161.287 64.6651 157.264 59.9815 148.432 59.9815L148.434 59.9785ZM144.159 73.2424C144.414 71.6389 145.306 70.7572 146.669 70.7572C147.299 70.7572 147.781 70.9495 148.103 71.3282C148.485 71.7779 148.608 72.4525 148.467 73.3372L147.553 79.077C147.541 79.148 147.48 79.2012 147.408 79.2012H143.385C143.294 79.2012 143.225 79.1184 143.24 79.0297L144.163 73.2424H144.159Z" fill="#F3EFDA"></path><path d="M119.707 60.8984L117.814 76.7305C117.805 76.8045 117.744 76.8607 117.667 76.8607H117.33C117.265 76.8607 117.205 76.8163 117.187 76.7541L112.718 60.8422C112.683 60.715 112.567 60.6262 112.434 60.6262L107.054 60.6084C106.936 60.6084 106.83 60.6794 106.782 60.786L99.8772 76.8074C99.8536 76.8607 99.8004 76.8962 99.7412 76.8962H99.5077C99.4249 76.8962 99.3598 76.8311 99.3598 76.7483V60.9043C99.3598 60.7416 99.2269 60.6084 99.0643 60.6084H88.4284C88.2658 60.6084 88.1328 60.7416 88.1328 60.9043V97.4119C88.1328 97.5747 88.2658 97.7078 88.4284 97.7078H99.289C99.4042 97.7078 99.5107 97.6397 99.5579 97.5332L107.829 79.2365C107.852 79.1833 107.905 79.1507 107.965 79.1507H108.577C108.642 79.1507 108.701 79.1951 108.718 79.2573L114.108 97.4977C114.146 97.6219 114.259 97.7107 114.392 97.7107L125.314 97.7344C125.459 97.7344 125.583 97.6279 125.607 97.4859L131.41 60.9842C131.438 60.8038 131.3 60.641 131.117 60.641H119.996C119.845 60.641 119.721 60.7534 119.703 60.9014L119.707 60.8984Z" fill="#F3EFDA"></path><path d="M179.393 60.9453L174.317 79.0821C174.3 79.1473 174.24 79.1917 174.176 79.1917H173.699C173.617 79.1917 173.552 79.1265 173.552 79.0437L173.537 60.9512C173.537 60.7885 173.404 60.6553 173.241 60.6553H161.781C161.61 60.6553 161.473 60.8003 161.485 60.9689L162.86 82.1178C162.906 82.8338 163.034 83.5439 163.291 84.2126C164.347 86.9671 167.007 88.8637 170.052 88.8637H171.482C171.533 88.8637 171.568 88.9111 171.553 88.9583L169.203 97.3523C169.15 97.5416 169.291 97.728 169.487 97.728H180.637C180.77 97.728 180.885 97.6392 180.921 97.512L191.111 61.105C191.164 60.9157 191.022 60.7293 190.827 60.7293H179.677C179.544 60.7293 179.429 60.8181 179.393 60.9453Z" fill="#F3EFDA"></path><path d="M244.741 80.828C244.726 80.7955 244.738 80.757 244.768 80.7363C246.952 79.3752 248.489 76.4698 248.481 71.7507C248.481 71.6737 248.481 71.5938 248.481 71.517C248.481 71.505 248.481 71.4932 248.481 71.4814C248.481 71.4726 248.481 71.4636 248.481 71.4548C248.471 70.9488 248.439 70.4518 248.378 69.9665C247.484 62.7325 243.065 60.6377 235.761 60.6377H221.116C220.945 60.6377 220.808 60.7827 220.821 60.9543L223.289 97.4826C223.301 97.6364 223.428 97.7577 223.585 97.7577H234.539C234.712 97.7577 234.847 97.6128 234.835 97.4412L233.854 83.9494C233.848 83.8636 233.916 83.7896 234.002 83.7896H235.054C235.119 83.7896 235.175 83.8311 235.196 83.8932L239.541 97.5506C239.58 97.672 239.696 97.7577 239.822 97.7577H251.959C252.175 97.7577 252.317 97.5358 252.229 97.3406L244.741 80.828ZM236.437 74.3188C235.95 74.8396 235.222 75.1059 234.28 75.1059H233.133C233.056 75.1059 232.99 75.0467 232.985 74.9668L232.576 68.9074C232.571 68.8216 232.639 68.7505 232.724 68.7505H233.889C235.855 68.7505 236.934 69.4843 237.105 71.9105C237.18 72.9578 236.952 73.7685 236.437 74.3188Z" fill="#F3EFDA"></path><path d="M268.826 59.9551C257.129 59.9551 249.508 67.4347 249.508 78.9205C249.508 90.4062 257.131 97.8888 268.826 97.8888C280.52 97.8888 288.252 90.3559 288.252 78.9205C288.252 67.485 280.579 59.9551 268.826 59.9551ZM268.879 85.6634C265.068 85.6634 262.476 82.9237 262.476 78.9175C262.476 74.9114 265.068 72.1214 268.879 72.1214C272.69 72.1214 275.338 74.8611 275.338 78.9175C275.338 82.9739 272.69 85.6634 268.879 85.6634Z" fill="#F3EFDA"></path><path d="M369.869 60.7236H357.425C357.262 60.7236 357.129 60.8568 357.129 61.0195V97.465C357.129 97.6277 357.262 97.7608 357.425 97.7608H369.869C381.232 97.7608 387.999 90.9173 387.999 79.2393C387.999 67.5643 381.232 60.7236 369.869 60.7236ZM369.813 87.6361H369.062C368.98 87.6361 368.915 87.571 368.915 87.4882V70.9963C368.915 70.9135 368.98 70.8485 369.062 70.8485H369.813C373.408 70.8485 375.314 74.0349 375.314 79.2393C375.314 84.4467 373.411 87.6332 369.813 87.6332V87.6361Z" fill="#F3EFDA"></path><path d="M309.175 60.6583C309.03 60.6583 308.906 60.7648 308.883 60.9068L304.974 85.2866C304.679 87.1476 303.535 87.5382 302.627 87.5382C302.009 87.5382 301.542 87.3577 301.241 87.0056C300.899 86.6032 300.789 85.9938 300.919 85.1949L304.771 60.9985C304.801 60.8181 304.661 60.6553 304.478 60.6553H293.588C293.443 60.6553 293.319 60.7619 293.295 60.9039L289.373 85.5559C288.078 93.6686 292.13 98.305 300.869 98.305C309.607 98.305 315.085 93.6686 316.379 85.5559L320.317 60.9985C320.346 60.8181 320.207 60.6553 320.024 60.6553H309.178L309.175 60.6583Z" fill="#F3EFDA"></path><path d="M342.873 60.6738C342.711 60.6738 342.578 60.8069 342.578 60.9697L342.542 76.8372C342.542 76.9201 342.477 76.9852 342.394 76.9852H342.382C342.324 76.9852 342.271 76.9497 342.246 76.8964L335.013 60.8483C334.965 60.7419 334.859 60.6738 334.744 60.6738H323.783C323.639 60.6738 323.514 60.7803 323.491 60.9223L317.699 97.4181C317.67 97.5986 317.809 97.7613 317.992 97.7613L328.826 97.7554C328.974 97.7554 329.098 97.6488 329.118 97.5009L332.078 77.1125C332.087 77.0385 332.148 76.9822 332.226 76.9822H332.359C332.414 76.9822 332.467 77.0148 332.492 77.0651L342.483 97.5956C342.533 97.6962 342.637 97.7613 342.749 97.7613H353.751C353.914 97.7613 354.047 97.6282 354.047 97.4654V60.9697C354.047 60.8069 353.914 60.6738 353.751 60.6738H342.876H342.873Z" fill="#F3EFDA"></path><path d="M291.5 142.884V140.041L298.163 132.655H291.605V129.707H302.223V132.55L295.507 139.935H302.356V142.884H291.5Z" fill="#F3EFDA"></path><path d="M279.191 142.884V140.041L285.854 132.655H279.298V129.707H289.916V132.55L283.2 139.935H290.049V142.884H279.191Z" fill="#F3EFDA"></path><path d="M273.414 142.885V129.707H276.997V142.885H273.414ZM275.218 127.9C274.564 127.9 274.023 127.705 273.599 127.315C273.193 126.926 272.988 126.439 272.988 125.855C272.988 125.27 273.193 124.792 273.599 124.42C274.023 124.031 274.564 123.836 275.218 123.836C275.873 123.836 276.404 124.031 276.811 124.42C277.218 124.792 277.421 125.27 277.421 125.855C277.421 126.439 277.218 126.926 276.811 127.315C276.404 127.705 275.873 127.9 275.218 127.9Z" fill="#F3EFDA"></path><path d="M260.176 142.884V140.041L266.839 132.655H260.281V129.707H270.899V132.55L264.183 139.935H271.032V142.884H260.176Z" fill="#F3EFDA"></path><path d="M254.397 142.885V129.707H257.98V142.885H254.397ZM256.202 127.9C255.547 127.9 255.008 127.705 254.583 127.315C254.176 126.926 253.973 126.439 253.973 125.855C253.973 125.27 254.176 124.792 254.583 124.42C255.008 124.031 255.547 123.836 256.202 123.836C256.857 123.836 257.388 124.031 257.795 124.42C258.201 124.792 258.406 125.27 258.406 125.855C258.406 126.439 258.201 126.926 257.795 127.315C257.388 127.705 256.857 127.9 256.202 127.9Z" fill="#F3EFDA"></path><path d="M243.573 143.203C242.494 143.203 241.564 142.972 240.785 142.512C240.025 142.051 239.441 141.37 239.033 140.467C238.644 139.545 238.449 138.421 238.449 137.093V129.707H242.007V136.773C242.007 137.871 242.228 138.713 242.67 139.298C243.113 139.882 243.812 140.174 244.767 140.174C245.386 140.174 245.927 140.033 246.386 139.749C246.864 139.448 247.236 139.032 247.501 138.5C247.784 137.951 247.927 137.288 247.927 136.508V129.707H251.51V142.884H248.378L248.085 140.705H248.059C247.652 141.467 247.068 142.078 246.307 142.539C245.564 142.982 244.652 143.203 243.573 143.203Z" fill="#F3EFDA"></path><path d="M231.361 145.806L224.618 135.153H228.733L235.661 145.806H231.361ZM226.981 143.203C225.159 143.203 223.548 142.795 222.15 141.98C220.751 141.166 219.654 140.042 218.858 138.606C218.062 137.154 217.664 135.48 217.664 133.585C217.664 131.69 218.062 130.026 218.858 128.591C219.654 127.138 220.751 126.005 222.15 125.19C223.548 124.376 225.159 123.968 226.981 123.968C228.84 123.968 230.467 124.376 231.865 125.19C233.281 126.005 234.378 127.138 235.157 128.591C235.935 130.026 236.325 131.69 236.325 133.585C236.325 135.48 235.935 137.154 235.157 138.606C234.378 140.042 233.281 141.166 231.865 141.98C230.467 142.795 228.84 143.203 226.981 143.203ZM226.981 139.988C228.149 139.988 229.158 139.732 230.008 139.218C230.857 138.686 231.512 137.942 231.971 136.986C232.432 136.03 232.662 134.896 232.662 133.585C232.662 132.258 232.432 131.124 231.971 130.185C231.512 129.228 230.857 128.494 230.008 127.98C229.158 127.466 228.149 127.21 226.981 127.21C225.848 127.21 224.858 127.466 224.008 127.98C223.159 128.494 222.495 129.228 222.017 130.185C221.557 131.124 221.327 132.258 221.327 133.585C221.327 134.896 221.557 136.03 222.017 136.986C222.495 137.942 223.159 138.686 224.008 139.218C224.858 139.732 225.848 139.988 226.981 139.988Z" fill="#F3EFDA"></path><path d="M198.856 148.543L202.041 141.396H201.246L195.883 129.707H199.758L203.607 138.182H203.66L207.085 129.707H210.881L202.652 148.543H198.856Z" fill="#F3EFDA"></path><path d="M190.652 142.885V123.942H194.236V142.885H190.652Z" fill="#F3EFDA"></path><path d="M180.676 142.884V129.707H183.809L184.127 132.337H184.18C184.516 131.629 184.915 131.061 185.375 130.637C185.852 130.212 186.393 129.902 186.994 129.707C187.596 129.494 188.268 129.388 189.012 129.388V133.188H188.029C187.445 133.188 186.914 133.249 186.436 133.373C185.977 133.497 185.578 133.709 185.242 134.011C184.924 134.294 184.676 134.675 184.499 135.153C184.34 135.631 184.26 136.225 184.26 136.933V142.884H180.676Z" fill="#F3EFDA"></path><path d="M171.868 143.203C170.523 143.203 169.328 142.92 168.284 142.353C167.257 141.786 166.452 140.989 165.869 139.962C165.285 138.935 164.992 137.756 164.992 136.429C164.992 135.047 165.275 133.834 165.842 132.788C166.426 131.726 167.23 130.893 168.257 130.292C169.302 129.689 170.513 129.388 171.894 129.388C173.204 129.388 174.354 129.672 175.345 130.238C176.354 130.805 177.133 131.584 177.68 132.576C178.248 133.551 178.53 134.657 178.53 135.897C178.53 136.074 178.53 136.277 178.53 136.508C178.53 136.72 178.512 136.942 178.477 137.173H167.567V134.967H174.893C174.84 134.152 174.53 133.497 173.965 133.001C173.416 132.505 172.726 132.257 171.894 132.257C171.275 132.257 170.708 132.399 170.195 132.683C169.682 132.948 169.275 133.356 168.974 133.904C168.673 134.454 168.523 135.153 168.523 136.004V136.774C168.523 137.5 168.665 138.129 168.948 138.66C169.23 139.173 169.62 139.573 170.116 139.856C170.628 140.139 171.204 140.281 171.841 140.281C172.495 140.281 173.044 140.139 173.487 139.856C173.929 139.555 174.266 139.173 174.495 138.713H178.159C177.893 139.546 177.469 140.307 176.885 140.998C176.301 141.671 175.584 142.211 174.735 142.619C173.885 143.008 172.929 143.203 171.868 143.203Z" fill="#F3EFDA"></path><path d="M141.105 142.884V129.707H144.238L144.53 131.646H144.583C144.991 130.92 145.548 130.362 146.255 129.972C146.964 129.583 147.786 129.388 148.725 129.388C149.397 129.388 150.008 129.477 150.557 129.654C151.104 129.831 151.582 130.097 151.99 130.451C152.414 130.805 152.768 131.256 153.051 131.806H153.078C153.574 131.044 154.211 130.451 154.99 130.025C155.785 129.601 156.688 129.388 157.697 129.388C158.812 129.388 159.749 129.627 160.511 130.105C161.29 130.566 161.882 131.248 162.29 132.151C162.696 133.055 162.899 134.17 162.899 135.499V142.884H159.343V135.817C159.343 134.72 159.13 133.878 158.705 133.293C158.281 132.709 157.617 132.417 156.715 132.417C156.131 132.417 155.617 132.558 155.175 132.842C154.732 133.108 154.387 133.506 154.14 134.037C153.91 134.569 153.795 135.215 153.795 135.977V142.884H150.211V135.817C150.211 134.72 149.999 133.878 149.574 133.293C149.167 132.709 148.503 132.417 147.583 132.417C147.017 132.417 146.512 132.567 146.07 132.868C145.645 133.151 145.309 133.568 145.061 134.117C144.813 134.648 144.69 135.304 144.69 136.083V142.884H141.105Z" fill="#F3EFDA"></path><path d="M131.16 142.884V129.707H134.292L134.611 132.337H134.664C135.001 131.629 135.398 131.061 135.859 130.637C136.337 130.212 136.876 129.902 137.478 129.707C138.079 129.494 138.753 129.388 139.495 129.388V133.188H138.513C137.929 133.188 137.398 133.249 136.921 133.373C136.46 133.497 136.062 133.709 135.726 134.011C135.407 134.294 135.16 134.675 134.982 135.153C134.824 135.631 134.744 136.225 134.744 136.933V142.884H131.16Z" fill="#F3EFDA"></path><path d="M122.082 143.203C120.826 143.203 119.685 142.911 118.658 142.326C117.631 141.741 116.818 140.927 116.215 139.882C115.631 138.837 115.34 137.641 115.34 136.295C115.34 134.932 115.641 133.736 116.242 132.709C116.844 131.664 117.658 130.85 118.685 130.265C119.711 129.68 120.853 129.388 122.109 129.388C123.382 129.388 124.533 129.68 125.559 130.265C126.586 130.85 127.391 131.664 127.975 132.709C128.577 133.736 128.878 134.932 128.878 136.295C128.878 137.659 128.577 138.864 127.975 139.909C127.374 140.935 126.559 141.741 125.532 142.326C124.524 142.911 123.374 143.203 122.082 143.203ZM122.109 140.148C122.675 140.148 123.188 140.006 123.648 139.723C124.126 139.421 124.507 138.988 124.79 138.421C125.091 137.854 125.241 137.146 125.241 136.295C125.241 135.446 125.091 134.737 124.79 134.17C124.507 133.586 124.135 133.151 123.675 132.868C123.214 132.585 122.702 132.443 122.136 132.443C121.569 132.443 121.047 132.585 120.569 132.868C120.091 133.151 119.711 133.586 119.427 134.17C119.144 134.737 119.003 135.446 119.003 136.295C119.003 137.146 119.144 137.854 119.427 138.421C119.711 138.988 120.082 139.421 120.542 139.723C121.021 140.006 121.542 140.148 122.109 140.148Z" fill="#F3EFDA"></path><path d="M107.778 142.885V128.485C107.778 127.387 107.964 126.51 108.336 125.855C108.725 125.182 109.266 124.695 109.955 124.394C110.645 124.093 111.459 123.942 112.397 123.942H113.857V126.97H112.955C112.389 126.97 111.981 127.085 111.734 127.316C111.486 127.546 111.362 127.928 111.362 128.459V142.885H107.778ZM106 132.656V129.707H114.15V132.656H106Z" fill="#F3EFDA"></path></svg>